# xmcd CD database file
#
# Track frame offsets:
#	150
#	10193
#	20455
#	29938
#	40225
#	48740
#	61323
#	72768
#	82755
#	92418
#	101838
#	109383
#	120250
#	131818
#	145993
#	155445
#
# Disc length: 2197 seconds
#
# Revision: 2
# Processed by: cddbd v1.5.2PL0 Copyright (c) Steve Scherf et al.
# Submitted via: CDex 1.51
#
DISCID=d8089310
DTITLE=Various Artist - Foggy Mountain Breakdown
DYEAR=1900
DGENRE=Bluegrass
TTITLE0=Joe Maphis - Foggy Mountain Breakdown
TTITLE1=Lester Flatt - Bluegrass Shuffle
TTITLE2=Osborne Brothers - Rutland's Reel
TTITLE3=Lester Flatt - Shuckin' The corn
TTITLE4=Joe Maphis - Carter Country
TTITLE5=Wynn Osborne - Flint Hill Special
TTITLE6=Josh Graves and Bobby Smith - Gretna Green
TTITLE7=Don Reno - Foggy Mountain Rock
TTITLE8=Josh Graves - Earl's Breakdown
TTITLE9=Lester Flatt - Foggy Mountain Special
TTITLE10=Joe Maphis - Cripple Creek
TTITLE11=Osborne Brothers - I'll Fly Away
TTITLE12=Eddie Adcock - Two By Four
TTITLE13=Stonemans - Sand Mountain
TTITLE14=Josh Graves - False-Hearted Lover
TTITLE15=Pinnacle Boys - Maryville Breakdown
EXTD=
EXTT0=
EXTT1=
EXTT2=
EXTT3=
EXTT4=
EXTT5=
EXTT6=
EXTT7=
EXTT8=
EXTT9=
EXTT10=
EXTT11=
EXTT12=
EXTT13=
EXTT14=
EXTT15=
PLAYORDER=
